<mxfile host="app.diagrams.net" agent="Mozilla/5.0 (Macintosh; Intel Mac OS X 10_15_7) AppleWebKit/537.36 (KHTML, like Gecko) Chrome/137.0.0.0 Safari/537.36" version="27.1.5">
  <diagram name="第 1 页" id="Q28BvSba5pNPeJnWj6dQ">
    <mxGraphModel dx="1845" dy="553" grid="1" gridSize="10" guides="1" tooltips="1" connect="1" arrows="1" fold="1" page="1" pageScale="1" pageWidth="827" pageHeight="1169" math="0" shadow="0">
      <root>
        <mxCell id="0" />
        <mxCell id="1" parent="0" />
        <mxCell id="pcykmEds2QiC9SElolUA-44" style="edgeStyle=orthogonalEdgeStyle;rounded=0;orthogonalLoop=1;jettySize=auto;html=1;exitX=1;exitY=0.5;exitDx=0;exitDy=0;entryX=0;entryY=0.5;entryDx=0;entryDy=0;" edge="1" parent="1" source="pcykmEds2QiC9SElolUA-1" target="pcykmEds2QiC9SElolUA-3">
          <mxGeometry relative="1" as="geometry">
            <mxPoint x="270" y="300" as="targetPoint" />
          </mxGeometry>
        </mxCell>
        <mxCell id="pcykmEds2QiC9SElolUA-45" style="edgeStyle=orthogonalEdgeStyle;rounded=0;orthogonalLoop=1;jettySize=auto;html=1;exitX=1;exitY=0.5;exitDx=0;exitDy=0;entryX=0;entryY=0.5;entryDx=0;entryDy=0;" edge="1" parent="1" source="pcykmEds2QiC9SElolUA-1" target="pcykmEds2QiC9SElolUA-4">
          <mxGeometry relative="1" as="geometry" />
        </mxCell>
        <mxCell id="pcykmEds2QiC9SElolUA-46" style="edgeStyle=orthogonalEdgeStyle;rounded=0;orthogonalLoop=1;jettySize=auto;html=1;exitX=1;exitY=0.5;exitDx=0;exitDy=0;entryX=0;entryY=0.5;entryDx=0;entryDy=0;" edge="1" parent="1" source="pcykmEds2QiC9SElolUA-1" target="pcykmEds2QiC9SElolUA-5">
          <mxGeometry relative="1" as="geometry" />
        </mxCell>
        <mxCell id="pcykmEds2QiC9SElolUA-1" value="在每个URL上&lt;div&gt;对比上个周期与&lt;div&gt;当前周期的流量&lt;/div&gt;&lt;/div&gt;" style="rounded=1;whiteSpace=wrap;html=1;" vertex="1" parent="1">
          <mxGeometry x="-20" y="575" width="130" height="50" as="geometry" />
        </mxCell>
        <mxCell id="pcykmEds2QiC9SElolUA-2" value="&lt;b&gt;&lt;font style=&quot;font-size: 14px;&quot;&gt;页面流量下跌复盘方法&lt;/font&gt;&lt;/b&gt;" style="text;html=1;align=left;verticalAlign=middle;whiteSpace=wrap;rounded=0;" vertex="1" parent="1">
          <mxGeometry x="-40" y="10" width="160" height="30" as="geometry" />
        </mxCell>
        <mxCell id="pcykmEds2QiC9SElolUA-33" style="edgeStyle=orthogonalEdgeStyle;rounded=0;orthogonalLoop=1;jettySize=auto;html=1;exitX=1;exitY=0.5;exitDx=0;exitDy=0;entryX=0;entryY=0.5;entryDx=0;entryDy=0;" edge="1" parent="1" source="pcykmEds2QiC9SElolUA-3" target="pcykmEds2QiC9SElolUA-6">
          <mxGeometry relative="1" as="geometry" />
        </mxCell>
        <mxCell id="pcykmEds2QiC9SElolUA-3" value="流量下跌但未跌0的" style="rounded=1;whiteSpace=wrap;html=1;" vertex="1" parent="1">
          <mxGeometry x="280" y="120" width="120" height="40" as="geometry" />
        </mxCell>
        <mxCell id="pcykmEds2QiC9SElolUA-34" style="edgeStyle=orthogonalEdgeStyle;rounded=0;orthogonalLoop=1;jettySize=auto;html=1;exitX=1;exitY=0.5;exitDx=0;exitDy=0;entryX=0;entryY=0.5;entryDx=0;entryDy=0;" edge="1" parent="1" source="pcykmEds2QiC9SElolUA-4" target="pcykmEds2QiC9SElolUA-11">
          <mxGeometry relative="1" as="geometry" />
        </mxCell>
        <mxCell id="pcykmEds2QiC9SElolUA-35" style="edgeStyle=orthogonalEdgeStyle;rounded=0;orthogonalLoop=1;jettySize=auto;html=1;exitX=1;exitY=0.5;exitDx=0;exitDy=0;entryX=0;entryY=0.5;entryDx=0;entryDy=0;" edge="1" parent="1" source="pcykmEds2QiC9SElolUA-4" target="pcykmEds2QiC9SElolUA-16">
          <mxGeometry relative="1" as="geometry" />
        </mxCell>
        <mxCell id="pcykmEds2QiC9SElolUA-4" value="流量跌0的" style="rounded=1;whiteSpace=wrap;html=1;" vertex="1" parent="1">
          <mxGeometry x="280" y="580" width="120" height="40" as="geometry" />
        </mxCell>
        <mxCell id="pcykmEds2QiC9SElolUA-43" style="edgeStyle=orthogonalEdgeStyle;rounded=0;orthogonalLoop=1;jettySize=auto;html=1;exitX=1;exitY=0.5;exitDx=0;exitDy=0;entryX=0;entryY=0.5;entryDx=0;entryDy=0;" edge="1" parent="1" source="pcykmEds2QiC9SElolUA-5" target="pcykmEds2QiC9SElolUA-22">
          <mxGeometry relative="1" as="geometry" />
        </mxCell>
        <mxCell id="pcykmEds2QiC9SElolUA-5" value="流量上涨的" style="rounded=1;whiteSpace=wrap;html=1;" vertex="1" parent="1">
          <mxGeometry x="280" y="1000" width="120" height="40" as="geometry" />
        </mxCell>
        <mxCell id="pcykmEds2QiC9SElolUA-29" style="edgeStyle=orthogonalEdgeStyle;rounded=0;orthogonalLoop=1;jettySize=auto;html=1;exitX=1;exitY=0.5;exitDx=0;exitDy=0;entryX=0;entryY=0.5;entryDx=0;entryDy=0;" edge="1" parent="1" source="pcykmEds2QiC9SElolUA-6" target="pcykmEds2QiC9SElolUA-7">
          <mxGeometry relative="1" as="geometry" />
        </mxCell>
        <mxCell id="pcykmEds2QiC9SElolUA-30" style="edgeStyle=orthogonalEdgeStyle;rounded=0;orthogonalLoop=1;jettySize=auto;html=1;exitX=1;exitY=0.5;exitDx=0;exitDy=0;entryX=0;entryY=0.5;entryDx=0;entryDy=0;" edge="1" parent="1" source="pcykmEds2QiC9SElolUA-6" target="pcykmEds2QiC9SElolUA-8">
          <mxGeometry relative="1" as="geometry" />
        </mxCell>
        <mxCell id="pcykmEds2QiC9SElolUA-31" style="edgeStyle=orthogonalEdgeStyle;rounded=0;orthogonalLoop=1;jettySize=auto;html=1;exitX=1;exitY=0.5;exitDx=0;exitDy=0;entryX=0;entryY=0.5;entryDx=0;entryDy=0;" edge="1" parent="1" source="pcykmEds2QiC9SElolUA-6" target="pcykmEds2QiC9SElolUA-9">
          <mxGeometry relative="1" as="geometry" />
        </mxCell>
        <mxCell id="pcykmEds2QiC9SElolUA-32" style="edgeStyle=orthogonalEdgeStyle;rounded=0;orthogonalLoop=1;jettySize=auto;html=1;exitX=1;exitY=0.5;exitDx=0;exitDy=0;entryX=0;entryY=0.5;entryDx=0;entryDy=0;" edge="1" parent="1" source="pcykmEds2QiC9SElolUA-6" target="pcykmEds2QiC9SElolUA-10">
          <mxGeometry relative="1" as="geometry" />
        </mxCell>
        <mxCell id="pcykmEds2QiC9SElolUA-6" value="质量问题" style="rounded=1;whiteSpace=wrap;html=1;" vertex="1" parent="1">
          <mxGeometry x="480" y="120" width="120" height="40" as="geometry" />
        </mxCell>
        <mxCell id="pcykmEds2QiC9SElolUA-7" value="召回数量" style="rounded=1;whiteSpace=wrap;html=1;" vertex="1" parent="1">
          <mxGeometry x="680" width="120" height="40" as="geometry" />
        </mxCell>
        <mxCell id="pcykmEds2QiC9SElolUA-8" value="相关性" style="rounded=1;whiteSpace=wrap;html=1;" vertex="1" parent="1">
          <mxGeometry x="680" y="80" width="120" height="40" as="geometry" />
        </mxCell>
        <mxCell id="pcykmEds2QiC9SElolUA-9" value="性能" style="rounded=1;whiteSpace=wrap;html=1;" vertex="1" parent="1">
          <mxGeometry x="680" y="160" width="120" height="40" as="geometry" />
        </mxCell>
        <mxCell id="pcykmEds2QiC9SElolUA-10" value="页面结构" style="rounded=1;whiteSpace=wrap;html=1;" vertex="1" parent="1">
          <mxGeometry x="680" y="240" width="120" height="40" as="geometry" />
        </mxCell>
        <mxCell id="pcykmEds2QiC9SElolUA-20" style="edgeStyle=orthogonalEdgeStyle;rounded=0;orthogonalLoop=1;jettySize=auto;html=1;exitX=1;exitY=0.5;exitDx=0;exitDy=0;entryX=0;entryY=0.5;entryDx=0;entryDy=0;" edge="1" parent="1" source="pcykmEds2QiC9SElolUA-11" target="pcykmEds2QiC9SElolUA-12">
          <mxGeometry relative="1" as="geometry" />
        </mxCell>
        <mxCell id="pcykmEds2QiC9SElolUA-21" style="edgeStyle=orthogonalEdgeStyle;rounded=0;orthogonalLoop=1;jettySize=auto;html=1;exitX=1;exitY=0.5;exitDx=0;exitDy=0;entryX=0;entryY=0.5;entryDx=0;entryDy=0;" edge="1" parent="1" source="pcykmEds2QiC9SElolUA-11" target="pcykmEds2QiC9SElolUA-13">
          <mxGeometry relative="1" as="geometry" />
        </mxCell>
        <mxCell id="pcykmEds2QiC9SElolUA-27" style="edgeStyle=orthogonalEdgeStyle;rounded=0;orthogonalLoop=1;jettySize=auto;html=1;exitX=1;exitY=0.5;exitDx=0;exitDy=0;entryX=0;entryY=0.5;entryDx=0;entryDy=0;" edge="1" parent="1" source="pcykmEds2QiC9SElolUA-11" target="pcykmEds2QiC9SElolUA-14">
          <mxGeometry relative="1" as="geometry" />
        </mxCell>
        <mxCell id="pcykmEds2QiC9SElolUA-28" style="edgeStyle=orthogonalEdgeStyle;rounded=0;orthogonalLoop=1;jettySize=auto;html=1;exitX=1;exitY=0.5;exitDx=0;exitDy=0;entryX=0;entryY=0.5;entryDx=0;entryDy=0;" edge="1" parent="1" source="pcykmEds2QiC9SElolUA-11" target="pcykmEds2QiC9SElolUA-15">
          <mxGeometry relative="1" as="geometry" />
        </mxCell>
        <mxCell id="pcykmEds2QiC9SElolUA-11" value="质量问题" style="rounded=1;whiteSpace=wrap;html=1;" vertex="1" parent="1">
          <mxGeometry x="480" y="440" width="120" height="40" as="geometry" />
        </mxCell>
        <mxCell id="pcykmEds2QiC9SElolUA-12" value="召回数量" style="rounded=1;whiteSpace=wrap;html=1;" vertex="1" parent="1">
          <mxGeometry x="680" y="320" width="120" height="40" as="geometry" />
        </mxCell>
        <mxCell id="pcykmEds2QiC9SElolUA-13" value="相关性" style="rounded=1;whiteSpace=wrap;html=1;" vertex="1" parent="1">
          <mxGeometry x="680" y="400" width="120" height="40" as="geometry" />
        </mxCell>
        <mxCell id="pcykmEds2QiC9SElolUA-14" value="性能" style="rounded=1;whiteSpace=wrap;html=1;" vertex="1" parent="1">
          <mxGeometry x="680" y="480" width="120" height="40" as="geometry" />
        </mxCell>
        <mxCell id="pcykmEds2QiC9SElolUA-15" value="页面结构" style="rounded=1;whiteSpace=wrap;html=1;" vertex="1" parent="1">
          <mxGeometry x="680" y="560" width="120" height="40" as="geometry" />
        </mxCell>
        <mxCell id="pcykmEds2QiC9SElolUA-36" style="edgeStyle=orthogonalEdgeStyle;rounded=0;orthogonalLoop=1;jettySize=auto;html=1;exitX=1;exitY=0.5;exitDx=0;exitDy=0;entryX=0;entryY=0.5;entryDx=0;entryDy=0;" edge="1" parent="1" source="pcykmEds2QiC9SElolUA-16" target="pcykmEds2QiC9SElolUA-17">
          <mxGeometry relative="1" as="geometry" />
        </mxCell>
        <mxCell id="pcykmEds2QiC9SElolUA-37" style="edgeStyle=orthogonalEdgeStyle;rounded=0;orthogonalLoop=1;jettySize=auto;html=1;exitX=1;exitY=0.5;exitDx=0;exitDy=0;entryX=0;entryY=0.5;entryDx=0;entryDy=0;" edge="1" parent="1" source="pcykmEds2QiC9SElolUA-16" target="pcykmEds2QiC9SElolUA-18">
          <mxGeometry relative="1" as="geometry" />
        </mxCell>
        <mxCell id="pcykmEds2QiC9SElolUA-38" style="edgeStyle=orthogonalEdgeStyle;rounded=0;orthogonalLoop=1;jettySize=auto;html=1;exitX=1;exitY=0.5;exitDx=0;exitDy=0;entryX=0;entryY=0.5;entryDx=0;entryDy=0;" edge="1" parent="1" source="pcykmEds2QiC9SElolUA-16" target="pcykmEds2QiC9SElolUA-19">
          <mxGeometry relative="1" as="geometry" />
        </mxCell>
        <mxCell id="pcykmEds2QiC9SElolUA-16" value="非质量问题" style="rounded=1;whiteSpace=wrap;html=1;" vertex="1" parent="1">
          <mxGeometry x="480" y="720" width="120" height="40" as="geometry" />
        </mxCell>
        <mxCell id="pcykmEds2QiC9SElolUA-17" value="noindex" style="rounded=1;whiteSpace=wrap;html=1;" vertex="1" parent="1">
          <mxGeometry x="680" y="640" width="120" height="40" as="geometry" />
        </mxCell>
        <mxCell id="pcykmEds2QiC9SElolUA-18" value="不可访问，&lt;div&gt;状态码异常&lt;/div&gt;" style="rounded=1;whiteSpace=wrap;html=1;" vertex="1" parent="1">
          <mxGeometry x="680" y="720" width="120" height="40" as="geometry" />
        </mxCell>
        <mxCell id="pcykmEds2QiC9SElolUA-19" value="孤岛页，无内链指向" style="rounded=1;whiteSpace=wrap;html=1;" vertex="1" parent="1">
          <mxGeometry x="680" y="800" width="120" height="40" as="geometry" />
        </mxCell>
        <mxCell id="pcykmEds2QiC9SElolUA-39" style="edgeStyle=orthogonalEdgeStyle;rounded=0;orthogonalLoop=1;jettySize=auto;html=1;exitX=1;exitY=0.5;exitDx=0;exitDy=0;entryX=0;entryY=0.5;entryDx=0;entryDy=0;" edge="1" parent="1" source="pcykmEds2QiC9SElolUA-22" target="pcykmEds2QiC9SElolUA-23">
          <mxGeometry relative="1" as="geometry" />
        </mxCell>
        <mxCell id="pcykmEds2QiC9SElolUA-40" style="edgeStyle=orthogonalEdgeStyle;rounded=0;orthogonalLoop=1;jettySize=auto;html=1;exitX=1;exitY=0.5;exitDx=0;exitDy=0;entryX=0;entryY=0.5;entryDx=0;entryDy=0;" edge="1" parent="1" source="pcykmEds2QiC9SElolUA-22" target="pcykmEds2QiC9SElolUA-24">
          <mxGeometry relative="1" as="geometry" />
        </mxCell>
        <mxCell id="pcykmEds2QiC9SElolUA-41" style="edgeStyle=orthogonalEdgeStyle;rounded=0;orthogonalLoop=1;jettySize=auto;html=1;exitX=1;exitY=0.5;exitDx=0;exitDy=0;entryX=0;entryY=0.5;entryDx=0;entryDy=0;" edge="1" parent="1" source="pcykmEds2QiC9SElolUA-22" target="pcykmEds2QiC9SElolUA-25">
          <mxGeometry relative="1" as="geometry" />
        </mxCell>
        <mxCell id="pcykmEds2QiC9SElolUA-42" style="edgeStyle=orthogonalEdgeStyle;rounded=0;orthogonalLoop=1;jettySize=auto;html=1;exitX=1;exitY=0.5;exitDx=0;exitDy=0;entryX=0;entryY=0.5;entryDx=0;entryDy=0;" edge="1" parent="1" source="pcykmEds2QiC9SElolUA-22" target="pcykmEds2QiC9SElolUA-26">
          <mxGeometry relative="1" as="geometry" />
        </mxCell>
        <mxCell id="pcykmEds2QiC9SElolUA-22" value="质量问题" style="rounded=1;whiteSpace=wrap;html=1;" vertex="1" parent="1">
          <mxGeometry x="480" y="1000" width="120" height="40" as="geometry" />
        </mxCell>
        <mxCell id="pcykmEds2QiC9SElolUA-23" value="召回数量" style="rounded=1;whiteSpace=wrap;html=1;" vertex="1" parent="1">
          <mxGeometry x="680" y="880" width="120" height="40" as="geometry" />
        </mxCell>
        <mxCell id="pcykmEds2QiC9SElolUA-24" value="相关性" style="rounded=1;whiteSpace=wrap;html=1;" vertex="1" parent="1">
          <mxGeometry x="680" y="960" width="120" height="40" as="geometry" />
        </mxCell>
        <mxCell id="pcykmEds2QiC9SElolUA-25" value="性能" style="rounded=1;whiteSpace=wrap;html=1;" vertex="1" parent="1">
          <mxGeometry x="680" y="1040" width="120" height="40" as="geometry" />
        </mxCell>
        <mxCell id="pcykmEds2QiC9SElolUA-26" value="页面结构" style="rounded=1;whiteSpace=wrap;html=1;" vertex="1" parent="1">
          <mxGeometry x="680" y="1120" width="120" height="40" as="geometry" />
        </mxCell>
      </root>
    </mxGraphModel>
  </diagram>
</mxfile>
